<svg width="28" height="28" viewBox="0 0 28 28" fill="none" xmlns="http://www.w3.org/2000/svg">
<g filter="url(#filter0_di_2015_239)">
<rect x="1.51086" y="1.49637" width="22.9928" height="22.9928" rx="5.1095" fill="#0D0C0D"/>
<path d="M18.7432 13.5095C18.6428 14.5967 18.2347 15.6328 17.5669 16.4965C16.8991 17.3603 15.9991 18.016 14.9722 18.3869C13.9454 18.7578 12.8341 18.8286 11.7684 18.591C10.7028 18.3534 9.72687 17.8172 8.95485 17.0452C8.18282 16.2731 7.64663 15.2972 7.40902 14.2316C7.17141 13.1659 7.2422 12.0547 7.61311 11.0278C7.98403 10.0009 8.63972 9.1009 9.50347 8.43308C10.3672 7.76526 11.4033 7.35724 12.4905 7.25677C11.854 8.1179 11.5477 9.17887 11.6273 10.2467C11.7069 11.3146 12.1672 12.3184 12.9244 13.0756C13.6816 13.8328 14.6854 14.2931 15.7533 14.3727C16.8211 14.4523 17.8821 14.146 18.7432 13.5095Z" stroke="#7F00B2" stroke-width="1.27738" stroke-linecap="round" stroke-linejoin="round"/>
</g>
<defs>
<filter id="filter0_di_2015_239" x="0.0738165" y="0.0593207" width="27.783" height="27.7829" filterUnits="userSpaceOnUse" color-interpolation-filters="sRGB">
<feFlood flood-opacity="0" result="BackgroundImageFix"/>
<feColorMatrix in="SourceAlpha" type="matrix" values="0 0 0 0 0 0 0 0 0 0 0 0 0 0 0 0 0 0 127 0" result="hardAlpha"/>
<feMorphology radius="0.479016" operator="dilate" in="SourceAlpha" result="effect1_dropShadow_2015_239"/>
<feOffset dx="0.958032" dy="0.958032"/>
<feGaussianBlur stdDeviation="0.958032"/>
<feComposite in2="hardAlpha" operator="out"/>
<feColorMatrix type="matrix" values="0 0 0 0 0.498039 0 0 0 0 0 0 0 0 0 0.698039 0 0 0 0.2 0"/>
<feBlend mode="normal" in2="BackgroundImageFix" result="effect1_dropShadow_2015_239"/>
<feBlend mode="normal" in="SourceGraphic" in2="effect1_dropShadow_2015_239" result="shape"/>
<feColorMatrix in="SourceAlpha" type="matrix" values="0 0 0 0 0 0 0 0 0 0 0 0 0 0 0 0 0 0 127 0" result="hardAlpha"/>
<feOffset dx="0.958032" dy="0.958032"/>
<feGaussianBlur stdDeviation="0.958032"/>
<feComposite in2="hardAlpha" operator="arithmetic" k2="-1" k3="1"/>
<feColorMatrix type="matrix" values="0 0 0 0 0.914045 0 0 0 0 0.7 0 0 0 0 1 0 0 0 0.2 0"/>
<feBlend mode="normal" in2="shape" result="effect2_innerShadow_2015_239"/>
</filter>
</defs>
</svg>
