<svg width="35" height="35" viewBox="0 0 35 35" fill="none" xmlns="http://www.w3.org/2000/svg">
<path d="M25.1389 2.22223H9.86112C5.64228 2.22223 2.22223 5.64228 2.22223 9.86112V25.1389C2.22223 29.3577 5.64228 32.7778 9.86112 32.7778H25.1389C29.3577 32.7778 32.7778 29.3577 32.7778 25.1389V9.86112C32.7778 5.64228 29.3577 2.22223 25.1389 2.22223Z" stroke="#7F00B2" stroke-width="3.05556" stroke-linecap="round" stroke-linejoin="round"/>
<path d="M23.6111 16.5375C23.7996 17.809 23.5825 19.1076 22.9904 20.2485C22.3984 21.3894 21.4617 22.3147 20.3136 22.8926C19.1654 23.4705 17.8643 23.6716 16.5952 23.4674C15.3261 23.2632 14.1538 22.664 13.2449 21.7551C12.336 20.8462 11.7368 19.6738 11.5326 18.4048C11.3284 17.1357 11.5295 15.8346 12.1074 14.6864C12.6853 13.5383 13.6105 12.6016 14.7515 12.0095C15.8924 11.4175 17.191 11.2003 18.4625 11.3889C19.7594 11.5812 20.9602 12.1856 21.8873 13.1127C22.8144 14.0398 23.4188 15.2405 23.6111 16.5375Z" stroke="#7F00B2" stroke-width="3.05556" stroke-linecap="round" stroke-linejoin="round"/>
<path d="M25.9028 9.09723H25.9181" stroke="#7F00B2" stroke-width="3.05556" stroke-linecap="round" stroke-linejoin="round"/>
</svg>
