<svg width="31" height="31" viewBox="0 0 31 31" fill="none" xmlns="http://www.w3.org/2000/svg">
<path d="M29.3374 14.7287C29.3428 16.7647 28.8671 18.7732 27.9491 20.5906C26.8607 22.7684 25.1874 24.6001 23.1168 25.8806C21.0462 27.1612 18.6599 27.8399 16.2253 27.8409C14.1892 27.8462 12.1807 27.3705 10.3634 26.4525L1.57048 29.3835L4.50144 20.5906C3.58348 18.7732 3.10778 16.7647 3.11309 14.7287C3.11403 12.2941 3.79278 9.90781 5.07331 7.83716C6.35384 5.76652 8.18558 4.09328 10.3634 3.00486C12.1807 2.0869 14.1892 1.61121 16.2253 1.61651H16.9966C20.2119 1.7939 23.2488 3.15104 25.5259 5.42808C27.8029 7.70513 29.1601 10.7421 29.3374 13.9574V14.7287Z" stroke="#7F00B2" stroke-width="3.08522" stroke-linecap="round" stroke-linejoin="round"/>
</svg>
