<svg width="35" height="33" viewBox="0 0 35 33" fill="none" xmlns="http://www.w3.org/2000/svg">
<path d="M23.6112 11.1528C26.0423 11.1528 28.3739 12.1186 30.093 13.8376C31.8121 15.5567 32.7779 17.8883 32.7779 20.3195V31.0139H26.6667V20.3195C26.6667 19.5091 26.3448 18.7319 25.7718 18.1589C25.1988 17.5858 24.4216 17.2639 23.6112 17.2639C22.8008 17.2639 22.0236 17.5858 21.4506 18.1589C20.8776 18.7319 20.5556 19.5091 20.5556 20.3195V31.0139H14.4445V20.3195C14.4445 17.8883 15.4103 15.5567 17.1294 13.8376C18.8485 12.1186 21.18 11.1528 23.6112 11.1528Z" stroke="#7F00B2" stroke-width="3.05556" stroke-linecap="round" stroke-linejoin="round"/>
<path d="M8.3334 12.6806H2.22229V31.0139H8.3334V12.6806Z" stroke="#7F00B2" stroke-width="3.05556" stroke-linecap="round" stroke-linejoin="round"/>
<path d="M5.27778 8.09723C6.96532 8.09723 8.33334 6.72921 8.33334 5.04167C8.33334 3.35413 6.96532 1.98611 5.27778 1.98611C3.59025 1.98611 2.22223 3.35413 2.22223 5.04167C2.22223 6.72921 3.59025 8.09723 5.27778 8.09723Z" stroke="#7F00B2" stroke-width="3.05556" stroke-linecap="round" stroke-linejoin="round"/>
</svg>
