<svg width="28" height="28" viewBox="0 0 28 28" fill="none" xmlns="http://www.w3.org/2000/svg">
<path d="M25.9745 15.0788C25.7648 17.3484 24.913 19.5113 23.5189 21.3145C22.1247 23.1177 20.2459 24.4865 18.1021 25.2608C15.9584 26.0352 13.6385 26.183 11.4139 25.6869C9.18923 25.1909 7.15186 24.0715 5.54017 22.4598C3.92848 20.8481 2.80912 18.8108 2.31308 16.5861C1.81704 14.3615 1.96483 12.0416 2.73915 9.89785C3.51348 7.75413 4.88231 5.87527 6.68549 4.48112C8.48867 3.08697 10.6516 2.23519 12.9212 2.02545C11.5924 3.82314 10.953 6.03805 11.1192 8.26734C11.2855 10.4966 12.2464 12.5922 13.8271 14.1729C15.4078 15.7536 17.5034 16.7145 19.7327 16.8807C21.9619 17.047 24.1768 16.4076 25.9745 15.0788Z" stroke="#7F00B2" stroke-width="2.66667" stroke-linecap="round" stroke-linejoin="round"/>
</svg>
