<svg width="148" height="72" viewBox="0 0 148 72" fill="none" xmlns="http://www.w3.org/2000/svg">
<path d="M24.9498 11.554L37.7077 25.7783L55.1782 18.0404L45.5925 34.5694L58.3503 48.7938L39.6682 44.7849L30.0824 61.3139L28.1219 42.3073L9.43977 38.2985L26.9103 30.5606L24.9498 11.554Z" fill="#E9B2FF"/>
<path d="M37.3049 25.7985L37.5476 26.0691L54.3574 18.6239L45.3161 34.2137L45.1339 34.5282L45.3766 34.7989L57.4094 48.2139L39.7891 44.4339L39.4337 44.3574L39.2515 44.672L30.2094 60.2622L28.3615 42.335L28.3242 41.9735L27.9688 41.897L10.348 38.1161L27.1587 30.6705L27.1214 30.3089L25.2713 12.3817L37.3049 25.7985Z" stroke="#1D0029"/>
<path d="M95.6904 47.8346H91.0594L88.4103 40.4534H78.2182L75.6297 47.8346H71.0392L80.9887 21.1207H85.7207L95.6904 47.8346ZM79.4922 36.692H87.2576C85.1949 30.6657 84.0557 27.3088 83.84 26.6212C83.6243 25.9336 83.4558 25.3472 83.3345 24.8619C83.0109 26.3314 82.5323 27.9626 81.8987 29.7557L79.4922 36.692ZM108.954 27.3492C109.816 27.3492 110.524 27.4099 111.077 27.5312L110.672 31.515C110.039 31.3667 109.405 31.2926 108.772 31.2926C107.073 31.2926 105.684 31.8521 104.606 32.9711C103.554 34.09 103.028 35.5393 103.028 37.3189V47.8346H98.7412V27.7132H102.098L102.664 31.2521H102.867C103.554 30.0388 104.43 29.0883 105.496 28.4008C106.574 27.6997 107.727 27.3492 108.954 27.3492ZM117.715 21.2218H121.921L122.204 21.6263C121.557 24.1743 120.485 27.0796 118.989 30.3421H115.895C116.744 26.8639 117.351 23.8238 117.715 21.2218ZM139.186 37.7638C140.669 38.7884 141.411 40.2579 141.411 42.1723C141.411 44.0867 140.689 45.5696 139.247 46.6212C137.818 47.6728 135.769 48.1986 133.099 48.1986C130.443 48.1986 128.293 47.7941 126.648 46.9852V43.2845C129.021 44.3765 131.225 44.9225 133.261 44.9225C135.89 44.9225 137.204 44.1271 137.204 42.5363C137.191 41.8083 136.881 41.2286 136.274 40.7971C135.668 40.3523 134.427 39.7456 132.553 38.9771C130.234 38.0739 128.664 37.1773 127.841 36.2875C127.019 35.3843 126.608 34.2181 126.608 32.7891C126.608 31.0634 127.302 29.7287 128.691 28.785C130.093 27.8278 131.974 27.3492 134.333 27.3492C136.692 27.3492 138.944 27.8278 141.087 28.785L139.692 32.0004C137.548 31.0971 135.721 30.6455 134.211 30.6455C131.96 30.6455 130.834 31.2926 130.834 32.5868C130.834 33.2339 131.124 33.7732 131.704 34.2046C132.297 34.6226 133.51 35.1888 135.344 35.9033C137.191 36.6178 138.472 37.238 139.186 37.7638Z" fill="#0D0C0D"/>
</svg>
